# xmcd
#
# Track frame offsets:
#	150
#	21645
#	46040
#	64555
#	87505
#	127995
#	146062
#	169390
#	188807
#	202975
#	232960
#	249750
#	281672
#
# Disc length: 4046 seconds
#
# Revision: 1
# Processed by: cddbd v1.5.2PL0 Copyright (c) Steve Scherf et al.
# Submitted via: audiograbber 1.83.01
#
DISCID=b30fcc0d
DTITLE=The Nimmo Brothers - Moving On
DYEAR=1998
DGENRE=Blues
TTITLE0=Red Wine
TTITLE1=Wasn't Born to Loose
TTITLE2=Kingy's Swing
TTITLE3=Black Cat Bone
TTITLE4=I Do It All For You
TTITLE5=Watch Out
TTITLE6=All My Life
TTITLE7=Jump Right Back
TTITLE8=Al's Boogie
TTITLE9=In My Mind
TTITLE10=Moving On
TTITLE11=Lonely Boy
TTITLE12=How Blue Can You Get
EXTD=
EXTT0=
EXTT1=
EXTT2=
EXTT3=
EXTT4=
EXTT5=
EXTT6=
EXTT7=
EXTT8=
EXTT9=
EXTT10=
EXTT11=
EXTT12=
PLAYORDER=
